<svg xmlns="http://www.w3.org/2000/svg" style="display:none">

  <!-- ICON 1 : Graph / Trend -->
  <symbol id="icon-altitude" viewBox="0 0 48 48">
    <circle cx="24" cy="24" r="23.5" stroke="#B5742A" />
    <path d="M5.9375 29.8815L13.4996 21.0032L17.8151 26.4599L21.6634 22.4154L25.7335 25.6024L29.266 21.0032L31.5997 18.1191L42.0609 29.8261" stroke="#B5731F" stroke-width="3" stroke-miterlimit="10" />
  </symbol>

  <!-- ICON 2 : Drop / Honey -->
  <symbol id="icon-honey-drop" viewBox="0 0 48 48">
    <circle cx="24" cy="24" r="23.5" stroke="#B5742A" />
    <path d="M24.0208 8.69824C25.7353 11.2568 27.4103 13.6505 28.9797 16.1168C30.8789 19.1106 32.6923 22.1571 33.8397 25.54C35.2838 29.7867 34.2617 33.4993 31.0239 36.4601C27.7136 39.4869 23.7834 40.1067 19.695 38.2669C15.6395 36.4469 13.5887 33.13 13.5162 28.6789C13.503 27.6963 13.7338 26.661 14.0701 25.7312C16.3187 19.5062 20.15 14.211 24.0142 8.69824H24.0208ZM26.5135 21.3394C26.7772 22.2363 27.074 23.1265 27.285 24.0365C28.1884 27.848 26.0387 30.301 22.1546 29.9581C21.4952 29.8988 20.7962 29.9054 20.1566 30.0439C18.4289 30.4131 17.7629 32.0156 18.7322 33.4861C19.0553 33.974 19.5301 34.4554 20.0511 34.7126C22.3459 35.8534 24.6407 35.7017 26.7377 34.2576C28.8676 32.8003 29.982 30.6967 29.593 28.1117C29.2171 25.6125 27.8389 23.476 26.5069 21.346L26.5135 21.3394Z" fill="#B5742A" />
    <path d="M26.5109 21.3396C27.8363 23.4695 29.2211 25.6061 29.597 28.1053C29.986 30.6903 28.8716 32.7938 26.7417 34.2512C24.6381 35.6953 22.3499 35.847 20.0551 34.7062C19.5341 34.449 19.0594 33.9676 18.7362 33.4796C17.7669 32.0091 18.4329 30.4133 20.1606 30.0374C20.8068 29.899 21.4992 29.8924 22.1587 29.9517C26.0361 30.3012 28.1858 27.8481 27.289 24.0301C27.0714 23.1201 26.7746 22.2298 26.5175 21.333L26.5109 21.3396Z" fill="#FFECC3" />
  </symbol>

  <!-- ICON 3 : Tools / Process -->
  <symbol id="icon-honey-dipper" viewBox="0 0 48 48">
    <circle cx="24" cy="24" r="23.5" stroke="#B5742A" />
    <path d="M24.7146 29.3279C27.8218 29.3211 28.7076 26.2003 27.0723 24.4559C27.3721 24.3401 27.6515 24.2379 27.9785 24.1084C28.4555 25.4303 28.9052 26.7113 28.6735 28.1286C28.5032 29.1371 28.0126 29.9616 27.1268 30.4318C25.7435 31.1677 25.2802 32.3737 25.1371 33.8047C25.0962 34.2339 25.0349 34.6632 24.9259 35.0789C24.776 35.6444 24.3739 35.7603 23.9038 35.4128C23.8152 35.3446 23.7334 35.2629 23.6585 35.1811C22.8817 34.3839 21.9618 33.9341 20.8716 34.3702C19.7677 34.8131 19.3997 35.842 19.4202 36.8982C19.4474 38.0293 19.7132 39.1536 19.8903 40.2779C20.0811 41.4908 20.197 42.7037 19.8427 43.903C19.6859 44.4345 19.502 44.9728 18.8342 45.0409C18.2414 45.1022 17.6622 44.6661 17.4101 43.9643C17.083 43.0376 17.1784 42.1177 17.5123 41.2114C17.6077 40.9457 17.7303 40.6936 17.8121 40.4278C18.0983 39.5011 17.8666 38.6971 17.0762 38.1383C16.5447 37.7636 15.9383 37.4842 15.3591 37.1776C14.7117 36.8301 14.0372 36.5439 13.4239 36.1555C12.1429 35.3446 11.4887 34.1794 11.6932 32.6327C11.7954 31.8559 11.9657 31.0927 12.1361 30.1524C13.1786 31.2085 14.0917 32.1421 15.0184 33.0688C15.6793 33.7297 16.4766 34.0568 17.4169 33.9273C18.7524 33.7502 19.5088 32.9325 19.8767 31.6106C20.8647 32.4419 21.9482 32.7212 23.1134 32.1625C24.2854 31.5969 24.7691 30.5885 24.7146 29.3211V29.3279Z" fill="#B5742A" />
    <path d="M22.3269 15.5156C22.6949 15.7064 23.1378 15.8291 23.424 16.1084C24.8958 17.5257 26.3403 18.9839 27.7849 20.4421C28.4799 21.144 28.4731 22.1524 27.819 22.8202C27.158 23.488 26.095 23.5084 25.3932 22.8202C23.9486 21.3961 22.5177 19.9583 21.0868 18.5206C20.5621 17.9891 20.4463 17.3418 20.7256 16.6536C20.9778 16.0199 21.591 15.6383 22.3337 15.5293L22.3269 15.5156Z" fill="#4B5441" />
    <path d="M23.7146 29.545C23.5851 30.3082 23.2853 30.8261 22.6789 31.1327C22.0588 31.4461 21.4456 31.3916 20.88 30.9692C20.7778 30.8874 20.6756 30.7988 20.587 30.7102C18.1135 28.2368 15.6401 25.7769 13.187 23.2898C12.9281 23.0241 12.7101 22.6493 12.6215 22.2882C12.4443 21.5386 12.8259 20.8368 13.48 20.4961C14.1137 20.169 14.8973 20.2712 15.4561 20.8095C16.2124 21.5386 16.9483 22.295 17.6911 23.0377C19.4422 24.7889 21.2139 26.5333 22.9378 28.3049C23.2717 28.6456 23.4557 29.1294 23.7078 29.545H23.7146Z" fill="#4B5441" />
    <path d="M17.4764 17.0488C17.8784 17.2601 18.3554 17.3895 18.6688 17.6893C21.2173 20.1901 23.7316 22.7112 26.246 25.246C26.9614 25.9615 26.9546 26.9904 26.28 27.6582C25.6054 28.3259 24.5697 28.3191 23.8611 27.6105C21.3195 25.0825 18.7847 22.5477 16.2567 20.0061C15.7252 19.4746 15.6162 18.8205 15.9092 18.1391C16.1886 17.4917 16.7132 17.1715 17.4832 17.0488H17.4764Z" fill="#4B5441" />
    <path d="M25.5391 16.4903C27.0381 14.998 28.5508 13.5057 30.0499 12.0067C31.5558 10.5076 33.0549 9.00171 34.5608 7.50264C35.2421 6.82124 36.0189 6.77354 36.5913 7.35954C37.1501 7.93192 37.0955 8.68827 36.4346 9.34922C33.525 12.2588 30.6155 15.1683 27.7059 18.0779C27.6037 18.1801 27.4879 18.2755 27.4061 18.3437C26.7928 17.7304 26.2 17.1308 25.5459 16.4834L25.5391 16.4903Z" fill="#4B5441" />
    <path d="M18.785 30.9689C18.7237 31.8411 18.4443 32.3657 17.8243 32.6656C17.1701 32.979 16.4956 32.9313 15.9845 32.4407C14.4445 30.9552 12.925 29.4425 11.4464 27.8958C10.8127 27.228 10.9217 26.24 11.5691 25.6131C12.2164 24.993 13.2044 24.9521 13.8585 25.5927C15.3644 27.0577 16.8567 28.5499 18.3149 30.0626C18.5806 30.3352 18.676 30.7713 18.7782 30.9757L18.785 30.9689Z" fill="#4B5441" />
  </symbol>

  <!-- ICON 4 : Star / Badge -->
  <symbol id="icon-star" viewBox="0 0 48 48">
    <path d="M24.002 10.0293L29.586 16.3143L37.2889 19.6828L33.0371 26.9357L32.2137 35.3025L24.002 33.5001L15.7902 35.3025L14.9668 26.9357L10.715 19.6828L18.4179 16.3143L24.002 10.0293Z" fill="#B5742A" />
    <circle cx="24" cy="24" r="23.5" stroke="#B5742A" />
  </symbol>

</svg>