<svg class="icon icon-youtube" viewBox="0 0 64 64" fill="none">
<path d="M18.4933 23.9306H24.719V43.9123H18.4933V23.9306ZM21.6062 14C23.6011 14 25.2123 15.6113 25.2123 17.5952C25.2123 19.5791 23.6011 21.2013 21.6062 21.2013C19.6113 21.2013 18 19.5901 18 17.5952C18 15.6003 19.6113 14 21.6062 14Z" fill="currentColor"/>
<path d="M28.6211 23.9301H34.5838V26.6594H34.6606C35.4936 25.081 37.5214 23.4259 40.5466 23.4259C46.8381 23.4259 48 27.5582 48 32.9509V43.9118H41.7961V34.1895C41.7961 31.8658 41.7523 28.8844 38.5626 28.8844C35.373 28.8844 34.8359 31.4054 34.8359 34.0141V43.9009H28.6321V23.9301H28.6211Z" fill="currentColor"/>
</svg>
