<svg viewBox="2 2 22 22" fill="none" xmlns="http://www.w3.org/2000/svg">
<path d="M18.8605 15L21.694 6.5H6.3605L5.3605 3.5H2.5V4.5H4.6395L7.964 14.474L5.7305 19.5H19.5V18.5H7.2695L8.825 15H18.8605ZM20.306 7.5L18.1395 14H8.8605L6.694 7.5H20.306Z" fill="currentColor"/>
<path d="M10 22C10.5523 22 11 21.5523 11 21C11 20.4477 10.5523 20 10 20C9.44772 20 9 20.4477 9 21C9 21.5523 9.44772 22 10 22Z" fill="currentColor"/>
<path d="M16 22C16.5523 22 17 21.5523 17 21C17 20.4477 16.5523 20 16 20C15.4477 20 15 20.4477 15 21C15 21.5523 15.4477 22 16 22Z" fill="currentColor"/>
</svg>
