<svg class="icon icon-tiktok" viewBox="0 0 64 64" fill="none" >
<path d="M47.87 28.6C47.58 28.63 47.28 28.64 46.98 28.65C43.73 28.65 40.7 27.01 38.92 24.29V39.12C38.92 45.18 34.01 50.08 27.96 50.08C21.91 50.08 17 45.17 17 39.12C17 33.07 21.91 28.16 27.96 28.16C28.19 28.16 28.41 28.18 28.64 28.19V33.59C28.42 33.56 28.19 33.52 27.96 33.52C24.87 33.52 22.36 36.03 22.36 39.12C22.36 42.21 24.87 44.72 27.96 44.72C31.05 44.72 33.78 42.28 33.78 39.19L33.83 14H39C39.49 18.64 43.22 22.26 47.87 22.6V28.6Z" fill="currentColor"/>
</svg>
