<svg class="icon icon-instagram" viewBox="0 0 64 64" fill="none" >
<path d="M41.0602 20.3199C39.9102 20.3199 38.9902 21.2499 38.9902 22.3899C38.9902 23.5299 39.9202 24.4599 41.0602 24.4599C42.2002 24.4599 43.1302 23.5299 43.1302 22.3899C43.1302 21.2499 42.2002 20.3199 41.0602 20.3199Z" fill="currentColor"/>
<path d="M31.8399 22.98C27.0399 22.98 23.1299 26.89 23.1299 31.69C23.1299 36.49 27.0399 40.4 31.8399 40.4C36.6399 40.4 40.5499 36.49 40.5499 31.69C40.5499 26.89 36.6399 22.98 31.8399 22.98ZM31.8399 37.28C28.7599 37.28 26.2599 34.78 26.2599 31.7C26.2599 28.62 28.7599 26.12 31.8399 26.12C34.9199 26.12 37.4199 28.62 37.4199 31.7C37.4199 34.78 34.9199 37.28 31.8399 37.28Z" fill="currentColor"/>
<path d="M38.76 49.39H24.63C18.77 49.39 14 44.62 14 38.76V24.63C14 18.77 18.77 14 24.63 14H38.76C44.62 14 49.39 18.77 49.39 24.63V38.76C49.39 44.62 44.62 49.39 38.76 49.39ZM24.63 17.33C20.61 17.33 17.33 20.6 17.33 24.63V38.76C17.33 42.78 20.6 46.06 24.63 46.06H38.76C42.78 46.06 46.06 42.79 46.06 38.76V24.63C46.06 20.61 42.79 17.33 38.76 17.33H24.63Z" fill="currentColor"/>
</svg>
