<!-- <svg xmlns="http://www.w3.org/2000/svg" fill="none" class="icon icon-arrow" viewBox="0 0 14 10"><path fill="currentColor" fill-rule="evenodd" d="M8.537.808a.5.5 0 0 1 .817-.162l4 4a.5.5 0 0 1 0 .708l-4 4a.5.5 0 1 1-.708-.708L11.793 5.5H1a.5.5 0 0 1 0-1h10.793L8.646 1.354a.5.5 0 0 1-.109-.546" clip-rule="evenodd"/></svg> -->
<svg fill="none" class="icon icon-arrow" viewBox="0 0 72 24" fill="none" xmlns="http://www.w3.org/2000/svg">
<path fill="currentColor" d="M58.5793 22.5211C58.9713 22.9018 59.1673 23.0922 59.392 23.1636C59.5898 23.2264 59.8022 23.2262 59.9997 23.1629C60.2243 23.0911 60.4199 22.9003 60.8111 22.5187L70.8256 12.7514C71.2357 12.3514 71.4407 12.1514 71.5173 11.9197C71.5846 11.716 71.5846 11.496 71.5173 11.2922C71.4407 11.0605 71.2357 10.8605 70.8256 10.4605L60.8087 0.690832C60.4183 0.310024 60.223 0.11962 59.9989 0.0476955C59.8016 -0.0155959 59.5895 -0.0160546 59.392 0.0463825C59.1675 0.117336 58.9715 0.306893 58.5794 0.686008L58.049 1.19878C57.6356 1.59851 57.4289 1.79838 57.3514 2.03052C57.2833 2.23463 57.2828 2.45528 57.3501 2.65969C57.4266 2.89216 57.6324 3.09292 58.0441 3.49444L61.4831 6.84864C62.364 7.70771 62.8044 8.13724 62.8367 8.50688C62.8648 8.82752 62.7368 9.14207 62.4928 9.35202C62.2116 9.59405 61.5964 9.59405 60.366 9.59405H1.6C1.03995 9.59405 0.759918 9.59405 0.546005 9.70305C0.357841 9.79892 0.204865 9.9519 0.108994 10.1401C0 10.354 0 10.634 0 11.1941V12.0179C0 12.5779 0 12.8579 0.108994 13.0719C0.204865 13.26 0.357841 13.413 0.546005 13.5089C0.759918 13.6179 1.03995 13.6179 1.6 13.6179H60.3614C61.593 13.6179 62.2088 13.6179 62.4901 13.8601C62.7341 14.0701 62.862 14.3849 62.8338 14.7056C62.8012 15.0754 62.36 15.505 61.4776 16.3642L58.0434 19.7081C57.6319 20.1088 57.4262 20.3091 57.3495 20.5413C57.282 20.7455 57.2822 20.9659 57.3499 21.17C57.4269 21.402 57.6329 21.6021 58.045 22.0022L58.5793 22.5211Z"/>
</svg>

